*******************************************************************************
                              Dirty Heroes (1967)
*******************************************************************************

-------------------------------------------------------------------------------
                              General Information
-------------------------------------------------------------------------------
Type.................: Movie



Video Format.........: AVI
Video Bitrate........: 1980
Resolution...........: 352 x 264
Color................: 8 bit
FPS..................: 25.0
Source...............: DVD 4x3
Original Format......: PAL
Genre................: War
IMDb Rating..........: 4.8
Movie Information....: http://www.imdb.com/title/tt0062855/

-------------------------------------------------------------------------------
                               Post Information
-------------------------------------------------------------------------------
Posted by............: RadioResearch
Posted on............: 3/2/2013

-------------------------------------------------------------------------------
                                 Release Notes
-------------------------------------------------------------------------------
SEEDBOX SUPPORTED!

Holland. Spring 1945. Two armies face each other in the final confrontation of 
World War II. On the one hand are the powerful forces of the Allies, on the 
other, all that remains of the Third Reich. The scene is set for the Battle of 
the Ardennes.  With Frederick Stafford and Curd Juergens!

Original Title:  Dalle Ardenne all'inferno

NOTE THAT THIS RELEASE HAS HARDCODED NL SUBS!

This is an obscure and somewhat rare Macaroni Combat film.  The plot is meh and 
sometimes the acting is wooden, but near the end, there are some pretty decent 
battle scenes (I saw the same three tanks advance several times, LOL).  I have 
been looking for this for some time.  Quality is about an A=9 and V=8.5 and 
looks like the DVD was made from a VHS, but no tape tracking issues.

Enjoy!

RadioResearch

General
Complete name                            : H:Dirty Heroes (1967) DVDRip - 
Hardcoded NL subsHeroes_dirty_Title1.avi
Format                                   : AVI
Format/Info                              : Audio Video Interleave
Format profile                           : OpenDML
File size                                : 1.60 GiB
Duration                                 : 1h 55mn
Overall bit rate                         : 1 980 Kbps
Movie name                               : Heroes_dirty
Writing application                      : MEncoder 5.0
Writing library                          : [= DigiArty videodll! =]

Video
ID                                       : 0
Format                                   : MPEG-4 Visual
Format profile                           : Simple@L1
Format settings, BVOP                    : No
Format settings, QPel                    : No
Format settings, GMC                     : No warppoints
Format settings, Matrix                  : Default (H.263)
Codec ID                                 : DX50
Codec ID/Hint                            : DivX 5
Duration                                 : 1h 55mn
Bit rate                                 : 1 718 Kbps
Width                                    : 352 pixels
Height                                   : 264 pixels
Display aspect ratio                     : 4:3
Frame rate                               : 25.000 fps
Color space                              : YUV
Chroma subsampling                       : 4:2:0
Bit depth                                : 8 bits
Scan type                                : Progressive
Compression mode                         : Lossy
Bits/(Pixel*Frame)                       : 0.740
Stream size                              : 1.39 GiB (87%)
Writing library                          : Lavc54.71.100

Audio
ID                                       : 1
Format                                   : AC-3
Format/Info                              : Audio Coding 3
Mode extension                           : CM (complete main)
Format settings, Endianness              : Big
Codec ID                                 : 2000
Duration                                 : 1h 55mn
Bit rate mode                            : Constant
Bit rate                                 : 256 Kbps
Channel(s)                               : 2 channels
Channel positions                        : Front: L R
Sampling rate                            : 48.0 KHz
Bit depth                                : 16 bits
Compression mode                         : Lossy
Stream size                              : 212 MiB (13%)
Alignment                                : Split accross interleaves
Interleave, duration                     : 500 ms (12.50 video frames)
Interleave, preload duration             : 500 ms






-------------------------------------------------------------------------------
Generated with Cool NFO Creator - http://fly.to/coolbeans
-------------------------------------------------------------------------------
